<svg width="214" height="56" viewBox="0 0 214 56" fill="none" xmlns="http://www.w3.org/2000/svg">
<g clip-path="url(#clip0_535_76670)">
<path d="M47.1742 0.363281L53.2014 15.626H52.1988L50.275 10.7321H42.9633L41.0192 15.626H40.0137L46.1513 0.363281H47.1771H47.1742ZM49.9757 9.91844L46.7034 1.2816H46.6599L43.2598 9.91844H49.9728H49.9757Z" fill="#231F20"/>
<path d="M56.4736 0.363281H62.8437C65.5144 0.363281 67.6736 1.34553 67.6736 4.2952C67.6736 6.34688 66.4327 7.86385 64.4014 8.20677V8.24745C66.6681 8.50319 67.2232 9.93588 67.3714 11.5197C67.5196 13.1006 67.2639 14.8123 67.8858 15.6231H66.8367C66.2584 14.5769 66.6042 12.8245 66.4298 11.3482C66.238 9.87195 65.5115 8.67465 62.8408 8.67465H57.4094V15.6202H56.4707V0.363281H56.4736ZM62.8437 7.86676C65.0669 7.86676 66.7349 6.81767 66.7349 4.36204C66.7349 2.05461 64.8954 1.17698 62.8437 1.17698H57.4123V7.86676H62.8437Z" fill="#231F20"/>
<path d="M84.0052 4.91707C83.5983 2.35101 81.3548 0.8137 78.8091 0.8137C74.8133 0.8137 72.4826 4.08594 72.4826 7.99751C72.4826 11.9091 74.8133 15.1813 78.8091 15.1813C81.7791 15.1813 84.0894 12.531 84.2609 9.68594H85.2025C84.8595 13.3185 82.1656 15.9921 78.8091 15.9921C74.2349 15.9921 71.541 12.4641 71.541 7.99751C71.541 3.53088 74.2349 0 78.8091 0C84.2173 0 84.9235 4.70202 84.9438 4.91707H84.0023H84.0052Z" fill="#231F20"/>
<path d="M90.2883 8.10215V15.626H89.3496V0.363281H90.2883V7.28845H100.035V0.363281H100.977V15.626H100.035V8.10215H90.2883Z" fill="#231F20"/>
<path d="M105.852 0.363281H106.793V15.626H105.852V0.363281Z" fill="#231F20"/>
<path d="M110.018 1.17698V0.363281H121.712V1.17408H116.324V15.626H115.382V1.17698H110.018Z" fill="#231F20"/>
<path d="M135.307 14.8123V15.6231H124.941V0.363281H135.203V1.17408H125.883V7.28845H134.648V8.09924H125.883V14.8123H135.31H135.307Z" fill="#231F20"/>
<path d="M150.974 4.91707C150.567 2.35101 148.324 0.8137 145.781 0.8137C141.782 0.8137 139.454 4.08594 139.454 7.99751C139.454 11.9091 141.782 15.1813 145.781 15.1813C148.751 15.1813 151.061 12.531 151.233 9.68594H152.174C151.831 13.3185 149.137 15.9921 145.784 15.9921C141.21 15.9921 138.516 12.4641 138.516 7.99751C138.516 3.53088 141.207 0 145.781 0C151.189 0 151.895 4.70202 151.916 4.91707H150.974Z" fill="#231F20"/>
<path d="M154.672 1.17698V0.363281H166.366V1.17408H160.978V15.626H160.036V1.17698H154.672Z" fill="#231F20"/>
<path d="M170.53 0.363281V9.5116C170.53 11.3511 170.917 15.1755 175.32 15.1755C179.06 15.1755 180.321 12.9727 180.321 9.5116V0.363281H181.263V9.5116C181.263 13.1442 179.894 15.9892 175.32 15.9892C169.888 15.9892 169.592 11.5429 169.592 9.5116V0.363281H170.53Z" fill="#231F20"/>
<path d="M186.137 0.363281H192.507C195.18 0.363281 197.34 1.34553 197.34 4.2952C197.34 6.34688 196.099 7.86385 194.067 8.20677V8.24745C196.334 8.50319 196.889 9.93588 197.037 11.5197C197.189 13.1006 196.933 14.8123 197.552 15.6231H196.506C195.927 14.5769 196.27 12.8245 196.099 11.3482C195.907 9.87195 195.18 8.67465 192.507 8.67465H187.078V15.6202H186.14V0.363281H186.137ZM192.507 7.86676C194.73 7.86676 196.398 6.81767 196.398 4.36204C196.398 2.05461 194.559 1.17698 192.507 1.17698H187.078V7.86676H192.507Z" fill="#231F20"/>
<path d="M212.149 14.8123V15.6231H201.783V0.363281H212.042V1.17408H202.722V7.28845H211.487V8.09924H202.722V14.8123H212.149Z" fill="#231F20"/>
<path d="M39.8857 20.6768H56.7496C67.8683 20.6768 71.7915 28.898 71.7915 37.3082C71.7915 47.5376 66.3717 54.0326 54.7386 54.0326H39.8828V20.6768H39.8857ZM50.1616 45.483H54.1807C60.5799 45.483 61.5156 40.2986 61.5156 37.1687C61.5156 35.0647 60.8617 29.2264 53.4338 29.2264H50.1616V45.483Z" fill="#231F20"/>
<path d="M73.8965 20.6768H101.507V29.2264H84.1753V33.385H99.9204V41.3273H84.1753V45.4859H102.021V54.0356H73.8994V20.6768H73.8965Z" fill="#231F20"/>
<path d="M135.307 20.6768H145.583V54.0326H135.307V20.6768Z" fill="#231F20"/>
<path d="M182.295 20.6768H192.806L202.524 38.5229H202.617V20.6768H212.335V54.0326H202.338L192.106 35.8145H192.013V54.0326H182.298V20.6768H182.295Z" fill="#231F20"/>
<path d="M124.205 33.7133C119.485 32.4056 114.722 31.8912 114.533 29.5082C114.533 27.6396 116.82 27.2677 118.224 27.2677C119.253 27.2677 120.421 27.5001 121.261 28.1075C121.694 28.3952 122.051 28.7614 122.272 29.2176H132.054C131.051 22.2896 125.03 19.8862 118.27 19.8862C111.511 19.8862 104.815 23.2021 104.815 30.9119C104.815 37.6394 110.842 39.0866 116.12 40.5804C121.865 42.2165 123.315 42.6815 123.315 44.4106C123.315 46.8865 120.746 47.4474 119.064 47.4474C117.381 47.4474 115.286 47.09 114.382 45.4887H104.074C105.789 53.7042 114.734 54.8288 118.174 54.8288C125.602 54.8288 133.591 52.0274 133.591 43.3353C133.591 37.2151 128.918 35.0181 124.202 33.7104L124.205 33.7133Z" fill="#231F20"/>
<path d="M35.8464 0.552153C34.6549 0.316761 33.4402 0.180176 32.2225 0.180176C22.2925 0.180176 15.1261 4.36201 15.1261 13.5161C15.1261 19.3544 19.8281 24.1872 24.905 26.7824L20.7988 31.6849C20.171 30.8915 19.6421 30.0401 19.2818 29.1857H6.82346C7.74468 33.1467 9.73825 37.1658 12.81 40.2636L0 53.8379H17.4684L22.3651 49.2783C26.7242 52.5825 30.7869 53.8437 35.8435 54.0675V42.6699C33.7162 42.4345 31.8331 41.0628 30.2028 39.6185L35.8435 32.9897V0.552153H35.8464ZM31.9842 18.5407C29.8948 17.605 27.7297 15.5853 27.7297 13.2052C27.7297 11.3308 29.2235 9.74406 31.3129 9.74406C33.1786 9.74406 35.271 11.0402 35.271 13.2778C35.271 15.0796 33.3297 17.0267 31.9842 18.5407Z" fill="#231F20"/>
<path d="M172.96 50.6237C170.67 53.5676 167.119 54.8288 163.478 54.8288C153.621 54.8288 147.547 47.1684 147.547 37.683C147.547 24.9747 156.469 19.8833 163.992 19.8833C172.496 19.8833 177.869 24.5069 179.363 32.3562H169.505C169.13 29.9267 167.076 28.1976 164.646 28.1976C157.593 28.1976 157.826 35.6255 157.826 37.9155C157.826 41.0453 159.087 46.5116 165.347 46.5116C167.73 46.5116 170.159 45.2969 170.673 42.8209H166.143V35.6749H179.784V54.0355H173.289L172.963 50.6237H172.96Z" fill="#231F20"/>
</g>
<defs>
<clipPath id="clip0_535_76670">
<rect width="212.335" height="54.8288" fill="white"/>
</clipPath>
</defs>
</svg>
