<svg width="15" height="11" viewBox="0 0 15 11" fill="none" xmlns="http://www.w3.org/2000/svg">
<path d="M13.1875 0.5C13.8984 0.5 14.5 1.10156 14.5 1.8125V9.6875C14.5 10.4258 13.8984 11 13.1875 11H1.8125C1.07422 11 0.5 10.4258 0.5 9.6875V1.8125C0.5 1.10156 1.07422 0.5 1.8125 0.5H13.1875ZM13.1875 1.8125H1.8125V2.93359C2.41406 3.45312 3.39844 4.21875 5.47656 5.85938C5.94141 6.21484 6.84375 7.08984 7.5 7.0625C8.12891 7.08984 9.03125 6.21484 9.49609 5.85938C11.5742 4.21875 12.5586 3.45312 13.1875 2.93359V1.8125ZM1.8125 9.6875H13.1875V4.62891C12.5586 5.12109 11.6562 5.83203 10.3164 6.89844C9.6875 7.36328 8.64844 8.40234 7.5 8.375C6.32422 8.40234 5.25781 7.36328 4.65625 6.89844C3.31641 5.83203 2.41406 5.12109 1.8125 4.62891V9.6875Z" fill="#4D4D4D"/>
</svg>
